<svg xmlns="http://www.w3.org/2000/svg" width="1800" height="1400"><switch><g><path fill="#B0DDCB" d="M248.9 1105.4h1287.6c22.9-68.1 35.3-141 35.3-216.8 0-375.2-304.1-679.3-679.3-679.3S213.3 513.5 213.3 888.6c0 75.8 12.4 148.7 35.3 216.8h.3z"/><path fill="#FFD10F" d="M1553 1108.6s-56.1 76.2-132 76.2H364.2c-75.9 0-132-76.2-132-76.2H1553z"/><path fill="#F0543A" d="M974 639.6s-95.9-31.6-165.5 23.2-91.2 251.4 10.5 353.1 144.6 91.7 189.3 83.3c0 0 33.1 17.3 75.3 5 42.2-12.4 183.4-90.4 166.6-271.7-16.9-181.3-95.9-197.1-168.7-188.7-72.7 8.4-90.5.1-107.5-4.2z"/><path fill="#D83C27" d="M1250.1 832.5c-11.7-125.8-53.3-171.9-102-185.5-12.3 15.7-51.4 49.4-161.3 50.9 20.7.8 109.1-7 147.3 75.6 48.8 105.5-66.4 290.8-148.6 290.8-34.5 0-67.6 4.1-95.5 12.1 54.1 36 85.7 29 118.2 22.9 0 0 33.1 17.3 75.3 5 42.3-12.5 183.5-90.5 166.6-271.8zM979.2 697.9c2.6 0 5.1 0 7.6-.1-4.9-.2-7.6.1-7.6.1z"/><path fill="#A11F21" d="M1059.5 1110c-23.5 0-45.9-3.9-51.2-4.9l-1 .2c-44.3 8.4-90.2 17.1-192.5-85.3-26.2-26.2-45.7-59.6-57.8-99.1-10.7-34.9-15.2-73.8-12.9-112.3 3.9-66.4 27.2-124.1 60.7-150.5 70.3-55.4 164.4-26.3 170.8-24.2 1.8.5 3.7 1 5.6 1.5 15.2 4.2 35.9 9.9 99.6 2.5 29.9-3.5 73.6-4.8 108.9 23.9 36.7 29.8 58.4 85.4 66.2 170.1 9.3 99.5-27.5 165.6-60 203.5-40.9 47.7-87.7 67.9-106.8 71.9-9.2 2-19.5 2.7-29.6 2.7zm-51.2-16.7c.4 0 .8 0 1.1.1.5.1 46.2 9 77.3 2.5 20.6-4.3 64.3-26 100.3-68.1 31-36.2 66.1-99.4 57.3-194.8-7.6-81.4-27.8-134.4-62-162.1-24.6-19.9-55.5-26.5-100.2-21.3-66 7.7-88 1.6-104.1-2.9-1.9-.5-3.7-1-5.5-1.5-.1 0-.3-.1-.4-.1-1.1-.4-93.9-29.9-160 22.2-31 24.4-52.5 78.8-56.2 142-4.8 81.1 19.7 154.9 67.3 202.4 98 98 138.8 90.2 182 82l2.1-.4h1z"/><path fill="#A11F21" d="M1006.9 703.8c-30.5 0-47.9-14.8-49-15.7-2.4-2.1-2.7-5.8-.6-8.3 2.1-2.4 5.8-2.7 8.3-.6 1.3 1.1 32.3 26.8 85.5 2.1 2.9-1.4 6.4-.1 7.8 2.8 1.4 2.9.1 6.4-2.8 7.8-18.9 8.9-35.4 11.9-49.2 11.9z"/><path fill="#A11F21" d="M1007.6 703.7c-3.2 0-5.8-2.6-5.9-5.8-.1-6.2-1.2-151.5 75.9-174.7 3.1-.9 6.4.8 7.3 3.9.9 3.1-.8 6.4-3.9 7.3-68.7 20.6-67.6 161.9-67.5 163.3.1 3.3-2.5 6-5.9 6 .1 0 .1 0 0 0z"/><path fill="#9ACB52" d="M1011.4 646.8s-20.5-129.5-146-123.2c0 0 17.8 164.2 146 123.2z"/><path fill="#A11F21" d="M972.6 659.3c-18.5 0-35.3-4.8-50.2-14.5-52.9-34.4-62.5-117-62.8-120.5-.2-1.6.3-3.2 1.4-4.4 1-1.2 2.6-2 4.2-2.1 67.6-3.4 105.4 31.8 125.2 61.9 21.3 32.3 26.6 64.9 26.8 66.3.5 2.9-1.2 5.6-4 6.5-14.3 4.5-27.9 6.8-40.6 6.8zm-100.4-130c3.3 19.6 16.4 79.5 56.7 105.7 20.8 13.5 46.3 16.2 75.7 7.8-2.3-10.1-9-33.9-24.2-57-25.3-38.1-61.7-57.2-108.2-56.5z"/><path fill="#78AB51" d="M1414 948.8s159.2-50.4 183.6 24c24.5 74.4-41.6 78.4-102.6 39.5-38.3-24.4-106.5-24.8-123.4-18.2-9.7-14.8 12.1-30 42.4-45.3z"/><path fill="#9ACB52" d="M1368.4 979.2S1484.3 914 1473 862.9c-11.3-51.1-55.7-39.8-64 5.2-8.4 45-30.2 82.1-44.4 94"/><path fill="#F6871F" d="M1367.1 973.2c-12.3-55.8-8.8-109.8-164.6-62.5-155.8 47.3-405 188.3-405 188.3s285.4 23 446.7.2 135.2-70.2 122.9-126z"/><path fill="#E16C26" d="M868.2 1060.5c-42.9 22.8-70.8 38.5-70.8 38.5s285.4 23 446.7.2 135.3-70.2 123-126c-2.9-13.1-4.9-26.1-8.3-37.8 0 0 16.8 87.3-125.6 114-113.6 21.4-278.5 47.4-365 11.1z"/><path fill="#A11F21" d="M1058.4 1115.1c-132.1 0-259.6-10.1-261.5-10.2-2.6-.2-4.7-2.1-5.3-4.6-.6-2.5.6-5.1 2.8-6.4 2.5-1.4 251.6-141.9 406.2-188.8 69.1-21 112.8-23.8 137.6-9 21.9 13.1 26.7 37.2 31.8 62.7.9 4.3 1.7 8.7 2.7 13.1 1 4.4 2 8.8 3.1 13 6.1 25.3 11.9 49.1-2.4 70.3-16.2 23.9-57.1 39.7-128.6 49.8-53.2 7.6-120.4 10.1-186.4 10.1zm-240.9-20.5c67.2 4.6 291.3 17.8 425.8-1.1 67-9.5 106.5-24.1 120.5-44.8 11.4-16.8 6.4-37.3.7-60.9-1-4.3-2.1-8.8-3.1-13.3s-1.9-9-2.8-13.3c-4.7-23.9-8.8-44.5-26.3-54.9-21.4-12.9-63.4-9.5-128.1 10.1-130 39.3-327.8 145.7-386.7 178.2z"/><path fill="#A11F21" d="M1216.4 979.7c-2.7 0-5.1-1.9-5.7-4.6l-14-63.2c-.7-3.2 1.3-6.3 4.5-7 3.2-.7 6.3 1.3 7 4.5l14 63.2c.7 3.2-1.3 6.3-4.5 7-.4.1-.9.1-1.3.1zM1159.1 1111.9c-2.7 0-5.1-1.9-5.7-4.6l-12.4-56.1c-.7-3.2 1.3-6.3 4.5-7 3.2-.7 6.3 1.3 7 4.5l12.4 56.1c.7 3.2-1.3 6.3-4.5 7-.5 0-.9.1-1.3.1zM1371.3 984.3l-5.8-10.2c31.2-17.6 110.3-71.5 101.8-109.9-4.1-18.4-13.2-29.3-24.2-29.1-11 .2-24.2 12-28.3 34.1-8.4 45-30.1 83.8-46.4 97.4l-7.5-9c12.6-10.6 34.1-45.6 42.4-90.6 4.7-25.4 21-43.4 39.6-43.7h.5c16.9 0 30.1 14.3 35.4 38.3 12 54.7-102.6 119.9-107.5 122.7z"/><path fill="#A11F21" d="M1564.8 1042.5c-20.9 0-47-8.7-72.9-25.2-37.8-24.1-103.7-23.3-118-17.6l-4.3-10.9c17.7-7 88.2-7.1 128.7 18.7 35.9 22.9 72.6 29.9 89.2 17.1 13.8-10.7 10.1-33 4.6-49.8-22.4-68.1-174.8-20.8-176.3-20.3l-3.5-11.2c6.7-2.1 165-51.2 191 27.8 12.1 36.9 2 54.5-8.6 62.7-7.6 5.8-17.9 8.7-29.9 8.7z"/><g><path fill="#A11F21" d="M1006.3 1052.9c-2.7 0-5.1-1.9-5.7-4.6l-11.2-50.9c-.7-3.2 1.3-6.3 4.5-7 3.2-.7 6.3 1.3 7 4.5l11.2 50.9c.7 3.2-1.3 6.3-4.5 7-.4.1-.8.1-1.3.1z"/></g><g><path fill="#A11F21" d="M1588.1 1114.4h-1391c-3.2 0-5.9-2.6-5.9-5.9s2.6-5.9 5.9-5.9H1588c3.2 0 5.9 2.6 5.9 5.9s-2.6 5.9-5.8 5.9z"/></g><g><circle transform="rotate(-45.001 654.527 887.877)" fill="#F6871F" cx="654.5" cy="887.9" r="220.7"/><path fill="#E16C26" d="M722 677.7c54.9 40.2 90.5 105 90.5 178.2 0 121.9-98.8 220.7-220.7 220.7-23.5 0-46.2-3.7-67.4-10.5 36.5 26.7 81.5 42.5 130.2 42.5 121.9 0 220.7-98.8 220.7-220.7-.1-98.4-64.4-181.7-153.3-210.2z"/><path fill="#A11F21" d="M654.5 1114.4c-124.9 0-226.6-101.6-226.6-226.6 0-124.9 101.6-226.6 226.6-226.6s226.6 101.6 226.6 226.6-101.6 226.6-226.6 226.6zm0-441.4c-118.5 0-214.8 96.4-214.8 214.8s96.4 214.8 214.8 214.8 214.8-96.4 214.8-214.8S773 673 654.5 673z"/></g><g><path fill="#9ACB52" d="M349.5 943.4c5.2 92.1 81.5 165.2 174.9 165.2s169.7-73.1 174.9-165.2H349.5z"/><path fill="#E6ECA3" d="M367.9 943.4c5.6 80.4 78.6 147.7 156.4 147.7 94.9 0 147.6-72.3 155.9-147.7H367.9z"/><path fill="#9ACB52" d="M420.2 1014c-14.4-18.6-23.5-40.5-26.5-63.9-.6-4.4 2.9-8.3 7.4-8.3h85.2c6.6 0 9.9 8 5.3 12.7l-60.2 60.2c-3.3 3.1-8.5 2.8-11.2-.7zM507.7 1064.1c-23.4-2.9-45.3-12-63.9-26.5-3.5-2.7-3.8-8-.7-11.1l60.2-60.2c4.7-4.7 12.7-1.4 12.7 5.3v85.2c0 4.3-3.9 7.8-8.3 7.3zM545.4 966.3l60.2 60.2c3.2 3.2 2.9 8.4-.7 11.1-18.6 14.4-40.5 23.5-63.9 26.5-4.4.6-8.3-2.9-8.3-7.4v-85.2c0-6.6 8-9.9 12.7-5.2zM562.5 941.8h85.2c4.5 0 7.9 3.9 7.4 8.3-2.9 23.4-12 45.3-26.5 63.9-2.7 3.5-8 3.8-11.1.7l-60.2-60.2c-4.8-4.7-1.4-12.7 5.2-12.7z"/><g><path fill="#A11F21" d="M425.9 1023.2h-.7c-3.5-.2-6.7-1.9-8.9-4.6a135.96 135.96 0 01-28.6-69c-.4-3.5.7-7 3-9.6 2.3-2.6 5.6-4.1 9.1-4.1h89c5 0 9.4 3 11.3 7.5 1.9 4.6.9 9.8-2.6 13.3l-62.9 62.9c-2.3 2.4-5.4 3.6-8.7 3.6zm-26-75.6c-.1 0-.2 0-.4.2s-.1.4-.1.4c2.7 23.1 11.7 44.9 26.1 63.1 0 0 .1.2.4.2.2 0 .3-.1.4-.1l62.9-62.9c.1-.1.2-.2.1-.5s-.3-.3-.4-.3h-89zM509.6 1070.1c-.5 0-.9 0-1.4-.1-25.2-2.9-49.1-12.8-69-28.6-2.7-2.2-4.4-5.4-4.6-8.9-.2-3.5 1.1-6.9 3.6-9.3l62.9-62.9c3.5-3.5 8.7-4.5 13.3-2.6 4.6 1.9 7.5 6.3 7.5 11.3v89c0 3.5-1.5 6.8-4.1 9.1-2.3 1.9-5.2 3-8.2 3zm0-101.7c-.1 0-.2.1-.3.2l-62.9 62.9s-.1.2-.1.4.2.3.2.4c18.2 14.4 40 23.5 63.1 26.1.1 0 .2 0 .4-.1s.2-.3.2-.4v-89c0-.1 0-.3-.3-.4-.2-.1-.2-.1-.3-.1zM539.1 1070.1c-3 0-5.9-1.1-8.2-3.1-2.6-2.3-4.1-5.6-4.1-9.1v-89c0-5 3-9.4 7.5-11.3 4.6-1.9 9.8-.9 13.3 2.6l62.9 62.9c2.5 2.5 3.8 5.9 3.6 9.3-.2 3.5-1.9 6.7-4.6 8.9a135.96 135.96 0 01-69 28.6c-.5.2-.9.2-1.4.2zm0-101.7c-.1 0-.1 0-.2.1-.3.1-.3.3-.3.4v89c0 .1 0 .2.2.4s.4.1.4.1c23.1-2.7 44.9-11.7 63.1-26.1 0 0 .2-.1.2-.4 0-.2-.1-.3-.1-.4l-62.9-62.9c-.2-.1-.2-.2-.4-.2zM622.8 1023.2c-3.2 0-6.3-1.3-8.6-3.6l-62.9-62.9c-3.5-3.5-4.5-8.7-2.6-13.3 1.9-4.6 6.3-7.5 11.3-7.5h89c3.5 0 6.8 1.5 9.1 4.1 2.3 2.6 3.4 6.1 3 9.6-2.9 25.2-12.8 49.1-28.6 69-2.2 2.7-5.4 4.4-8.9 4.6h-.8zm-62.9-75.6c-.1 0-.3 0-.4.3-.1.3 0 .4.1.5l62.9 62.9s.1.2.4.1c.2 0 .3-.2.4-.2 14.4-18.2 23.5-40 26.1-63.1 0-.2 0-.3-.1-.4-.1-.2-.3-.2-.4-.2h-89z"/></g><g><path fill="#A11F21" d="M524.4 1114.4c-96.9 0-176.3-75.7-180.8-172.4-.1-1.6.5-3.2 1.6-4.3s2.6-1.8 4.2-1.8h350c1.6 0 3.1.7 4.2 1.8 1.1 1.2 1.7 2.7 1.6 4.3-4.5 96.7-84 172.4-180.8 172.4zM355.6 947.6c7.2 87.5 80.2 155.1 168.7 155.1 88.5 0 161.5-67.6 168.7-155.1H355.6z"/></g></g><g><path fill="#9ACB52" d="M664.9 1052.5c62.6 67.7 168 75.5 240 16s84.3-164.4 29.7-238.7l-269.7 222.7z"/><path fill="#E6ECA3" d="M679.1 1040.7c55.5 58.5 154.6 63.9 214.6 14.3 73.2-60.4 67.8-149.7 26.2-213.2l-240.8 198.9z"/><path fill="#9ACB52" d="M764.3 1061.9c-23-5.1-44-16.3-61.1-32.4-3.2-3.1-3-8.3.4-11.1l65.7-54.2c5.1-4.2 12.8-.2 12.1 6.4l-8.1 84.8c-.4 4.4-4.6 7.5-9 6.5zM863.7 1044.8c-19.9 12.6-42.6 19.6-66.1 20.3-4.5.1-8-3.7-7.6-8.1l8.1-84.8c.6-6.6 8.9-9.1 13.1-4l54.2 65.7c2.8 3.3 2 8.5-1.7 10.9zM830.5 945.3l84.8 8.1c4.4.4 7.5 4.6 6.6 9-5.1 23-16.3 44-32.4 61.1-3.1 3.2-8.3 3-11.1-.4l-54.2-65.7c-4.4-5-.3-12.7 6.3-12.1zM828.1 915.6l65.7-54.2c3.4-2.8 8.6-2 11 1.7 12.6 19.9 19.6 42.6 20.3 66.1.1 4.5-3.7 8-8.1 7.6l-84.8-8.1c-6.7-.6-9.2-8.9-4.1-13.1z"/><g><path fill="#A11F21" d="M766.8 1068.1c-.9 0-1.7-.1-2.6-.3-24.8-5.3-47.7-17.4-66-35-2.5-2.4-3.9-5.8-3.8-9.3.1-3.5 1.7-6.7 4.4-9l68.6-56.7c3.8-3.2 9.1-3.7 13.5-1.4 4.4 2.3 6.9 7 6.4 11.9l-8.5 88.6c-.3 3.5-2.1 6.6-4.9 8.7-1.9 1.7-4.5 2.5-7.1 2.5zm8.5-101.3c-.1 0-.2.1-.3.1l-68.6 56.7s-.2.1-.2.3c0 .2.1.4.2.4 16.8 16.1 37.6 27.2 60.3 32 .1 0 .2 0 .4-.1s.2-.3.2-.3l8.5-88.6c0-.1 0-.3-.3-.5 0 .1-.1 0-.2 0zM796.2 1071c-3.4 0-6.7-1.4-9-3.9-2.4-2.6-3.5-6-3.2-9.5l8.5-88.6c.5-4.9 3.8-9.1 8.6-10.5 4.7-1.5 9.8.1 13 3.9l56.7 68.6c2.2 2.7 3.2 6.2 2.6 9.6-.5 3.5-2.5 6.5-5.5 8.4-21.3 13.8-46 21.4-71.4 21.9-.2.1-.2.1-.3.1zm8.5-101.3h-.2c-.3.1-.3.3-.3.4l-8.5 88.6c0 .1 0 .2.1.4.2.2.3.2.4.2 23.2-.5 45.8-7.4 65.3-20 0 0 .2-.1.2-.4 0-.2-.1-.3-.1-.4L805 969.8c-.1 0-.2-.1-.3-.1zM883.9 1032.3h-.5c-3.5-.1-6.7-1.7-9-4.4l-56.7-68.6c-3.2-3.8-3.7-9.1-1.4-13.5 2.3-4.4 7-6.9 12-6.4l88.6 8.5c3.5.3 6.6 2.1 8.7 4.9 2.1 2.8 2.8 6.4 2.1 9.8-5.3 24.8-17.4 47.7-35 66-2.2 2.3-5.4 3.7-8.8 3.7zm-56.7-81.4c-.1 0-.3 0-.4.3-.2.3 0 .4.1.5l56.7 68.6s.1.2.3.2c.2 0 .3 0 .4-.2 16.1-16.8 27.2-37.6 32-60.3 0-.1 0-.2-.1-.4s-.3-.2-.3-.2l-88.7-8.5c.1 0 .1 0 0 0zM918.7 942.8c-.4 0-.8 0-1.2-.1l-88.6-8.5c-4.9-.5-9.1-3.8-10.5-8.6-1.5-4.7.1-9.8 3.9-13l68.6-56.7c2.7-2.2 6.2-3.2 9.6-2.7 3.5.5 6.5 2.5 8.4 5.5 13.8 21.3 21.4 46 21.9 71.4.1 3.5-1.4 6.9-3.9 9.2-2.2 2.4-5.2 3.5-8.2 3.5zm-88.9-21c-.1.1-.2.2-.2.5.1.3.3.3.4.3l88.6 8.5c.1 0 .2 0 .4-.1.1-.1.2-.2.2-.4-.5-23.2-7.4-45.8-20-65.3 0-.1-.1-.2-.4-.2-.2 0-.3.1-.4.1l-68.6 56.6z"/></g><g><path fill="#A11F21" d="M793.3 1114.6c-49.3 0-98.3-20.1-133.9-59.4-1.1-1.2-1.6-2.8-1.5-4.4.1-1.6.9-3.1 2.1-4.1l269.9-222.8c1.2-1 2.8-1.5 4.4-1.3 1.6.2 3 1 4 2.3 58 77.4 45 186.4-29.7 248.1-33.8 27.9-74.6 41.6-115.3 41.6zm-121-62.8c61.3 62.8 160.6 68.5 228.9 12.2 68.3-56.4 81.5-155 31.4-227l-260.3 214.8z"/></g></g><g><path fill="#A11F21" d="M1421 1190.7H364.2c-78 0-134.4-75.4-136.7-78.6l9.4-7c.5.7 55.3 73.8 127.3 73.8H1421c72.1 0 126.7-73.1 127.3-73.8l9.5 7c-2.5 3.2-58.8 78.6-136.8 78.6z"/></g><g><path fill="#A11F21" d="M533.2 760.3c-.9-2.4-22.6-60.1-94.5-70.8l1.7-11.6c79 11.8 102.9 75.7 103.8 78.4l-11 4z"/></g><g><path fill="#A11F21" d="M499 778.5l-.9-11.7c54.8-4 59.6-44.6 59.8-46.4l11.7 1.1c0 .6-5.6 52.2-70.6 57z"/></g><g><path fill="#9ACB52" d="M507 714.5s-16.1-98.3 56.8-110.3c0 0 40.5 83.1-56.8 110.3z"/></g><g><path fill="#A11F21" d="M507 720.3c-1.1 0-2.2-.3-3.2-.9-1.4-.9-2.4-2.4-2.6-4-.2-1-4.1-25.9 1.1-52.7 7.2-36.7 28.1-59 60.6-64.3 2.6-.4 5.1.9 6.2 3.2.7 1.5 18 37.7 2.7 71.7-10 22.2-31.2 37.9-63.2 46.8-.6.2-1.1.2-1.6.2zm53.2-109.5c-51.1 11.9-50 75.1-48.2 96 24.7-8.1 41.2-21 49-38.3 10.3-22.8 2.9-48-.8-57.7z"/></g></g></switch></svg>